<?xml version="1.0" standalone="no"?>
<!DOCTYPE svg PUBLIC "-//W3C//DTD SVG 20010904//EN"
 "http://www.w3.org/TR/2001/REC-SVG-20010904/DTD/svg10.dtd">
<svg version="1.0" xmlns="http://www.w3.org/2000/svg"
 width="664.000000pt" height="664.000000pt" viewBox="0 0 664.000000 664.000000"
 preserveAspectRatio="xMidYMid meet">
<metadata>
Created by potrace 1.11, written by Peter Selinger 2001-2013
</metadata>
<g transform="translate(0.000000,664.000000) scale(0.100000,-0.100000)"
fill="#000000" stroke="none">
<path d="M403 6235 c-21 -23 -36 -76 -24 -88 6 -6 11 -23 11 -37 0 -14 8 -36
17 -49 12 -18 13 -22 2 -16 -8 5 -3 -3 10 -18 12 -14 20 -30 16 -36 -3 -6 -1
-11 5 -11 7 0 9 -7 6 -16 -3 -8 -2 -12 3 -9 13 8 29 -24 24 -46 -3 -11 0 -19
6 -19 6 0 17 -12 24 -27 6 -16 20 -37 29 -47 10 -11 18 -28 18 -37 0 -10 8
-23 18 -28 9 -6 13 -11 8 -11 -5 0 1 -8 12 -19 12 -10 19 -21 15 -25 -3 -3 -1
-6 6 -6 7 0 11 -6 8 -14 -3 -8 1 -20 9 -26 8 -7 14 -9 14 -4 0 5 7 -1 15 -14
9 -12 15 -28 13 -35 -2 -7 9 -25 24 -40 31 -30 63 -87 51 -87 -5 -1 4 -7 19
-15 22 -12 138 -165 138 -182 0 -3 25 -30 55 -60 30 -30 55 -59 55 -64 0 -10
48 -59 58 -59 4 0 16 -13 27 -29 10 -16 23 -27 27 -25 4 3 8 -1 8 -8 0 -8 28
-44 63 -81 89 -95 165 -179 180 -201 8 -10 19 -16 25 -12 6 3 13 -2 16 -11 3
-10 25 -34 48 -53 23 -19 76 -70 117 -114 112 -116 165 -168 199 -195 17 -14
36 -35 43 -48 7 -13 15 -21 17 -18 3 3 15 -9 27 -25 12 -16 25 -27 28 -23 4 3
7 -1 7 -10 0 -9 17 -28 38 -44 53 -40 141 -133 124 -133 -4 0 8 -8 26 -17 19
-9 38 -27 43 -40 5 -13 13 -21 19 -18 5 3 10 2 10 -4 0 -15 65 -78 90 -86 12
-4 19 -9 17 -12 -3 -2 21 -31 53 -64 32 -32 55 -59 52 -59 -3 0 23 -27 58 -60
75 -69 73 -67 144 -142 30 -32 59 -58 65 -58 6 0 11 -6 11 -13 0 -8 19 -29 43
-48 23 -18 47 -38 52 -43 11 -10 -4 -27 -146 -171 -38 -39 -69 -74 -69 -78 0
-13 -53 -67 -67 -67 -7 0 -13 -5 -13 -11 0 -6 -7 -17 -15 -25 -8 -9 -15 -12
-15 -8 0 4 -11 -7 -25 -26 -14 -19 -25 -30 -25 -25 0 5 -14 -10 -31 -33 -17
-23 -36 -39 -42 -35 -6 4 -8 0 -4 -10 3 -9 3 -16 -1 -15 -8 3 -48 -29 -71 -56
-9 -11 -40 -43 -68 -72 -29 -28 -53 -55 -53 -59 0 -12 -44 -55 -57 -55 -6 0
-15 -5 -19 -12 -5 -7 -3 -8 7 -3 12 8 12 6 0 -8 -7 -9 -17 -14 -22 -11 -5 3
-9 -2 -9 -11 0 -9 -5 -13 -10 -10 -6 3 -13 -2 -17 -12 -9 -26 -34 -53 -44 -47
-5 3 -6 -1 -3 -9 3 -8 -11 -25 -36 -42 -22 -15 -40 -31 -40 -34 0 -9 -96 -111
-101 -107 -2 1 -12 -6 -21 -16 -10 -10 -16 -18 -13 -18 3 0 -22 -26 -54 -57
-33 -31 -58 -60 -55 -65 3 -4 -4 -8 -15 -8 -11 0 -23 -4 -26 -10 -3 -6 1 -7
12 -4 10 3 7 -1 -7 -9 -14 -9 -32 -28 -40 -43 -9 -15 -24 -32 -34 -38 -27 -16
-55 -43 -50 -49 3 -3 -11 -14 -30 -26 -19 -12 -45 -38 -56 -57 -12 -18 -24
-34 -26 -34 -3 0 -2 5 2 12 4 7 3 8 -5 4 -6 -4 -10 -15 -9 -24 2 -10 -3 -16
-10 -14 -7 1 -15 -5 -18 -13 -4 -8 -12 -15 -19 -15 -13 0 -30 -28 -27 -43 1
-4 -5 -7 -13 -7 -8 0 -15 -5 -15 -10 0 -6 -19 -30 -42 -54 -24 -24 -61 -63
-84 -87 -52 -57 -91 -89 -106 -89 -6 0 -9 -3 -5 -6 3 -3 -10 -21 -29 -39 -19
-18 -34 -38 -34 -44 0 -6 -3 -10 -7 -9 -15 3 -43 -14 -43 -26 0 -15 -81 -92
-93 -88 -4 1 -6 -2 -3 -7 4 -5 -6 -19 -20 -30 -15 -12 -24 -21 -20 -21 3 0 -2
-8 -11 -19 -10 -10 -22 -18 -28 -17 -5 1 -9 -5 -7 -12 3 -16 -85 -105 -98 -97
-5 3 -12 0 -16 -6 -5 -8 -3 -9 7 -4 8 4 5 -2 -6 -13 -35 -37 -46 -52 -38 -52
4 0 -6 -8 -24 -16 -18 -9 -35 -26 -39 -38 -4 -11 -17 -31 -30 -43 -25 -23 -67
-120 -58 -135 3 -5 0 -16 -7 -24 -14 -17 -22 -167 -8 -158 5 3 9 -3 9 -13 0
-11 5 -24 12 -31 9 -9 9 -12 -1 -12 -10 0 -9 -6 4 -26 9 -14 14 -31 12 -39 -3
-7 5 -17 19 -24 13 -6 24 -18 24 -26 0 -17 28 -50 41 -50 4 0 11 -4 16 -9 5
-5 3 -6 -4 -2 -7 4 -13 2 -13 -5 0 -7 8 -9 21 -6 12 3 19 3 16 0 -12 -11 38
-53 64 -53 18 0 32 -7 39 -20 11 -21 45 -27 55 -9 5 7 14 4 26 -7 11 -10 19
-12 19 -6 0 14 68 16 89 3 10 -6 23 -5 35 2 12 6 24 12 29 13 4 1 10 3 15 4 4
2 12 4 17 4 6 1 20 7 31 14 12 6 24 8 28 5 3 -4 15 3 26 15 12 12 26 22 32 22
14 0 108 98 108 112 0 6 3 8 7 4 4 -3 28 16 54 44 26 27 50 50 53 50 4 0 27
20 53 45 25 25 49 45 53 45 4 0 10 9 13 20 3 11 11 19 18 18 7 -2 15 6 17 17
2 11 13 27 24 37 148 128 228 205 228 218 0 6 4 9 9 6 9 -6 71 51 71 65 0 4
16 17 36 29 22 14 33 28 30 37 -3 8 -1 11 4 8 6 -3 10 -1 10 4 0 6 7 11 16 11
8 0 13 4 10 9 -3 5 1 12 10 15 8 3 12 11 9 16 -4 6 -2 9 3 8 5 -2 21 10 36 25
14 15 26 25 26 21 0 -13 45 41 57 69 13 29 28 35 36 15 4 -8 6 -9 6 -2 1 14
80 94 92 94 4 0 11 5 15 12 5 7 2 9 -7 4 -8 -4 -3 2 11 14 14 12 25 27 25 33
0 6 6 12 14 15 9 3 11 0 6 -9 -5 -8 5 0 21 16 16 17 28 33 27 37 -1 3 19 23
45 45 52 42 116 104 119 116 3 10 31 38 38 37 20 -1 25 1 20 9 -3 5 4 12 15
16 18 6 25 17 21 38 -1 5 3 6 7 3 5 -3 44 28 86 69 42 41 80 75 85 75 5 0 16
11 25 25 9 13 26 34 38 46 13 12 16 19 8 15 -8 -4 -4 1 10 12 13 11 28 18 32
16 4 -3 8 0 8 6 0 14 70 84 93 93 10 4 16 11 13 16 -8 12 21 34 34 26 6 -4 9
-3 8 2 -3 12 25 53 37 53 5 0 18 14 27 30 10 17 21 29 25 28 4 -2 22 12 39 29
17 18 34 30 37 26 4 -3 7 -2 7 3 0 14 90 108 118 123 12 6 22 18 22 25 0 8 9
16 20 19 11 3 20 12 20 19 0 8 11 20 25 26 14 6 25 16 25 22 0 6 5 8 11 4 7
-4 10 -1 7 7 -2 7 7 26 20 41 24 27 26 27 53 11 15 -9 26 -19 25 -22 -6 -10
21 -30 30 -23 4 4 4 -1 1 -10 -3 -10 -3 -17 1 -16 14 4 53 -23 47 -33 -4 -5 1
-9 9 -9 8 0 18 -5 22 -12 5 -7 2 -8 -7 -3 -8 4 6 -10 31 -33 46 -41 66 -60 87
-84 6 -7 27 -28 47 -47 20 -18 33 -39 29 -45 -3 -6 -3 -8 2 -4 4 4 27 -13 51
-38 24 -25 44 -43 44 -39 0 9 44 -36 75 -78 15 -21 30 -36 32 -33 6 5 74 -61
73 -70 -1 -4 4 -10 10 -14 8 -5 -30 -50 -113 -133 -69 -69 -128 -122 -132
-119 -3 4 -3 -1 0 -10 4 -11 0 -18 -14 -23 -12 -3 -21 -14 -21 -23 0 -15 -2
-15 -10 -2 -8 13 -10 12 -10 -2 0 -10 -4 -18 -10 -18 -5 0 -9 -6 -7 -12 1 -7
-8 -14 -21 -16 -12 -2 -20 -7 -17 -11 2 -5 -4 -16 -15 -26 -11 -10 -20 -14
-20 -9 0 5 -11 -8 -25 -29 -14 -20 -30 -37 -35 -37 -6 0 -9 -3 -8 -7 1 -5 -6
-20 -16 -35 -30 -45 -15 -91 39 -121 29 -17 46 -21 49 -14 3 9 5 8 5 0 1 -9 8
-10 26 -3 14 5 25 6 25 1 0 -12 19 -9 48 7 12 7 26 11 31 8 4 -3 17 4 29 14
12 11 26 20 32 20 6 0 9 4 6 9 -5 8 24 41 34 38 3 -1 16 8 30 20 13 13 20 23
15 23 -5 0 7 11 26 25 19 14 64 57 101 96 38 39 68 65 68 58 0 -16 11 -6 14
13 2 15 23 37 74 80 27 22 37 26 53 18 10 -6 19 -17 19 -25 0 -8 5 -15 10 -15
6 0 16 -11 22 -25 6 -14 15 -25 20 -25 4 0 33 -25 64 -55 31 -30 61 -52 67
-48 6 3 7 1 3 -6 -8 -12 28 -51 46 -51 4 0 8 -5 8 -10 0 -13 103 -115 123
-123 8 -3 21 -19 28 -36 7 -16 16 -28 20 -25 4 2 10 0 14 -6 4 -6 11 -7 17 -4
7 4 8 2 4 -4 -8 -13 67 -92 86 -92 6 0 9 -3 6 -6 -6 -6 60 -74 72 -74 4 0 10
-9 13 -20 3 -11 17 -24 31 -30 14 -5 26 -16 26 -25 0 -8 8 -15 17 -15 9 0 14
-3 10 -6 -7 -8 44 -60 56 -56 5 1 6 -2 2 -7 -3 -6 3 -16 15 -23 11 -7 20 -18
20 -25 0 -7 3 -13 8 -13 6 0 84 -65 104 -87 14 -15 103 -105 146 -146 23 -23
44 -49 47 -57 3 -8 21 -25 40 -38 19 -12 35 -27 35 -32 0 -6 7 -10 16 -10 8 0
13 -4 9 -9 -3 -5 3 -16 12 -23 23 -17 27 -36 12 -54 -18 -22 -20 -123 -3 -156
8 -15 19 -28 24 -28 5 0 16 -7 25 -16 32 -33 116 -18 172 30 22 19 24 19 43 1
11 -10 17 -23 13 -29 -3 -6 -3 -8 2 -4 4 4 21 0 37 -8 17 -9 32 -13 35 -11 2
3 19 0 36 -8 42 -16 197 4 197 26 0 5 7 9 15 9 8 0 15 5 15 10 0 6 5 10 11 10
11 0 89 75 89 86 0 3 6 12 14 20 8 7 12 23 9 34 -3 11 -1 26 4 33 11 13 9 151
-2 204 -4 17 -16 41 -26 52 -26 28 -24 56 7 80 14 11 23 25 20 30 -4 5 1 14 9
18 21 12 29 61 13 81 -7 9 -8 13 -2 9 6 -3 11 0 11 8 0 8 -3 12 -7 10 -4 -2
-13 6 -20 19 -7 13 -23 29 -37 35 -15 7 -22 7 -18 1 3 -5 2 -10 -3 -10 -6 0
-12 7 -16 15 -4 11 -14 14 -38 9 -18 -3 -40 -7 -48 -8 -8 0 -21 -8 -28 -16
-10 -11 -15 -12 -18 -3 -3 7 -11 10 -19 7 -7 -3 -18 4 -24 15 -6 11 -24 28
-41 37 -16 10 -27 21 -24 26 3 4 -1 8 -9 8 -7 0 -20 11 -27 25 -7 13 -16 22
-20 20 -4 -3 -19 10 -33 28 -40 53 -98 107 -114 107 -10 0 -13 6 -9 16 4 11
-1 18 -14 21 -11 3 -17 9 -15 14 3 4 -8 15 -25 24 -17 9 -43 30 -58 47 -27 31
-125 136 -141 152 -5 4 -25 24 -45 42 -20 19 -36 37 -36 39 1 5 -71 74 -173
168 -27 24 -54 55 -61 68 -6 13 -16 24 -21 25 -14 0 -135 121 -135 134 0 5 -6
10 -14 10 -7 0 -25 18 -39 39 -15 22 -42 52 -62 66 -19 15 -35 34 -35 41 0 12
-5 15 -26 14 -3 -1 -17 13 -32 30 -14 16 -31 30 -37 30 -6 0 -16 9 -23 20 -10
16 -10 20 0 20 7 0 22 8 33 17 20 15 20 16 0 9 -11 -4 -17 -5 -15 -3 3 3 28
24 55 48 28 23 49 46 48 50 -1 4 9 10 23 13 14 4 23 10 20 15 -3 4 6 14 20 21
18 10 21 16 12 22 -10 6 -10 8 0 8 20 0 65 37 51 42 -6 2 5 12 25 23 20 11 39
28 42 37 3 10 8 17 12 14 4 -2 18 8 32 22 16 16 18 20 5 11 -18 -13 -19 -13
-6 4 7 9 20 17 28 17 8 0 12 4 8 9 -3 5 -1 12 5 16 18 11 50 93 43 111 -5 13
-3 15 8 9 12 -8 12 -6 0 8 -10 13 -10 17 -1 17 9 0 9 4 2 13 -6 7 -9 22 -8 32
2 11 -2 26 -8 34 -9 12 -8 13 4 6 8 -4 -1 7 -20 26 -29 29 -41 34 -70 31 -19
-2 -41 -9 -49 -16 -12 -9 -13 -8 -6 4 8 13 7 13 -10 0 -31 -24 -65 -62 -65
-72 0 -5 -4 -7 -9 -4 -4 3 -16 -10 -27 -29 -10 -18 -21 -32 -24 -30 -11 7 -51
-26 -45 -36 4 -5 -1 -9 -9 -9 -9 0 -16 -4 -16 -8 0 -14 -78 -92 -91 -92 -7 0
-10 -3 -6 -6 7 -7 -13 -29 -57 -61 -16 -13 -27 -23 -24 -23 3 0 -19 -25 -49
-55 -56 -57 -73 -66 -73 -40 0 8 -7 15 -16 15 -8 0 -13 4 -9 10 3 5 -9 17 -27
26 -34 18 -81 64 -86 84 -4 19 -115 119 -132 121 -9 0 -10 3 -3 5 13 6 -17 38
-60 67 -15 9 -27 23 -27 30 0 7 -9 19 -21 27 -45 32 -114 106 -77 84 7 -4 8
-3 4 5 -4 7 -13 10 -19 8 -16 -5 -35 15 -29 31 2 7 -4 15 -15 18 -11 3 -36 25
-56 49 -34 41 -36 44 -17 50 11 3 20 10 20 15 0 14 61 70 76 70 9 0 13 4 9 10
-3 5 6 16 19 25 14 9 28 25 31 36 4 10 10 18 14 16 4 -1 28 19 54 46 25 26 48
47 51 47 9 0 73 67 79 84 4 10 12 14 18 10 8 -4 9 -3 5 5 -4 6 0 14 10 18 10
4 54 43 98 87 44 45 83 80 88 79 4 -2 7 0 6 5 -2 6 108 122 117 122 9 0 70 65
68 72 -2 4 0 7 5 7 19 -3 33 2 27 10 -3 6 4 15 16 21 11 7 18 14 15 17 -3 3
17 23 44 44 27 21 53 46 59 56 6 10 11 15 11 11 0 -13 62 56 71 80 5 12 15 22
22 22 18 0 77 53 77 69 0 7 5 9 10 6 6 -3 10 1 10 10 0 8 13 23 29 33 15 9 28
19 27 22 0 3 10 20 24 39 13 19 17 31 9 26 -12 -8 -12 -6 0 8 7 9 10 17 7 17
-4 0 -3 8 3 17 7 13 5 23 -5 35 -9 9 -17 22 -18 30 -10 43 -29 76 -42 71 -8
-3 -14 0 -14 7 0 6 -4 9 -9 6 -11 -7 -22 31 -14 51 3 8 12 12 21 8 9 -3 13 -3
9 1 -4 4 3 12 16 19 51 27 72 41 80 52 4 7 15 9 25 6 9 -3 14 -3 10 2 -7 7 26
44 41 46 29 3 45 10 60 23 10 9 24 16 33 16 8 0 22 8 31 18 9 10 28 19 43 20
15 1 33 7 40 13 7 6 19 7 25 3 7 -4 9 -3 6 3 -6 9 22 19 71 25 6 1 12 6 12 11
0 5 11 7 25 5 14 -3 25 -1 25 4 0 5 5 6 10 3 6 -4 21 0 34 9 14 8 33 12 46 9
16 -4 21 -3 16 5 -5 9 0 9 18 2 17 -6 26 -6 26 0 0 6 7 10 15 10 8 0 15 5 15
11 0 16 26 39 35 31 4 -4 6 0 3 8 -3 8 3 26 13 39 11 13 19 32 19 42 0 10 5
21 10 24 6 4 8 10 6 14 -3 4 4 18 15 30 11 12 17 26 14 31 -3 6 -2 10 4 10 6
0 7 7 4 17 -5 12 -3 14 7 8 9 -6 12 -4 8 6 -3 8 0 23 8 33 7 11 11 23 8 28 -3
4 5 23 18 40 12 18 21 43 20 55 -2 13 1 23 6 23 5 0 12 21 15 46 2 26 10 50
16 54 7 3 13 24 16 46 2 21 5 41 6 44 1 3 1 8 0 13 0 4 3 7 9 7 5 0 7 7 4 15
-4 8 -2 15 3 15 5 0 9 15 10 34 1 19 5 40 9 47 4 8 9 28 11 45 2 18 10 44 17
59 8 15 13 37 11 50 -1 13 4 26 11 29 8 3 11 12 8 21 -3 8 -2 15 4 15 13 0 4
92 -11 102 -6 4 -7 8 -2 8 6 1 0 5 -13 10 -12 5 -30 6 -39 3 -9 -4 -14 -2 -11
3 4 5 -5 10 -18 10 -13 1 -21 -2 -18 -7 3 -5 -8 -8 -24 -7 -17 1 -37 -3 -45
-10 -9 -7 -28 -10 -46 -7 -25 4 -31 2 -31 -12 0 -14 -2 -15 -9 -5 -6 11 -13
11 -30 3 -11 -6 -30 -15 -41 -21 -11 -6 -31 -10 -46 -10 -14 0 -34 -4 -44 -10
-10 -5 -32 -11 -49 -12 -17 -1 -31 -5 -31 -9 0 -11 -57 -28 -66 -21 -4 4 -4 1
0 -6 6 -9 -1 -12 -26 -11 -18 2 -48 -5 -66 -15 -18 -9 -37 -14 -42 -11 -6 4
-13 0 -16 -8 -3 -9 -13 -13 -25 -10 -11 3 -19 0 -19 -7 0 -7 -6 -10 -14 -7 -8
3 -26 -5 -41 -19 -30 -28 -43 -32 -24 -6 10 12 8 12 -10 -3 -13 -11 -25 -19
-27 -17 -12 10 -71 -14 -87 -34 -10 -13 -23 -22 -27 -19 -5 3 -25 -1 -45 -9
-19 -8 -35 -12 -35 -8 0 17 -54 -85 -57 -108 -5 -48 -9 -65 -17 -78 -4 -6 -4
-17 -1 -23 4 -5 -1 -19 -10 -29 -10 -11 -15 -26 -12 -35 4 -8 3 -15 -1 -15 -4
0 -9 -8 -10 -17 -4 -39 -9 -54 -20 -65 -7 -7 -12 -19 -12 -28 0 -20 -23 -70
-32 -70 -4 0 -5 -9 -3 -20 2 -12 -3 -24 -15 -30 -10 -5 -21 -23 -25 -39 -3
-16 -13 -35 -21 -41 -7 -7 -11 -16 -9 -21 3 -4 -3 -17 -14 -28 -27 -27 -52
-77 -43 -86 4 -5 2 -6 -3 -2 -6 3 -20 -8 -30 -24 -11 -16 -26 -31 -33 -34 -14
-5 -52 15 -52 29 0 17 -75 77 -95 75 -11 -1 -28 1 -37 5 -39 14 -48 15 -48 6
0 -5 -8 -7 -19 -5 -24 4 -175 -140 -165 -158 4 -7 4 -9 0 -5 -4 3 -16 -2 -27
-13 -11 -11 -24 -17 -29 -14 -5 3 -12 0 -16 -6 -5 -8 -2 -10 7 -5 8 4 5 0 -5
-8 -11 -9 -16 -16 -12 -16 4 0 -10 -18 -32 -40 -21 -22 -44 -40 -50 -40 -7 0
-11 -3 -11 -7 3 -19 -2 -33 -12 -33 -6 0 -26 -16 -45 -35 -18 -19 -39 -35 -45
-35 -7 0 -9 -3 -6 -7 4 -3 -2 -13 -13 -20 -11 -8 -18 -19 -15 -24 4 -5 1 -9
-5 -9 -6 0 -9 -3 -7 -7 2 -5 -17 -26 -44 -48 -26 -22 -48 -45 -48 -52 -1 -6
-6 -15 -13 -19 -7 -5 -9 -2 -4 7 4 8 -4 1 -19 -16 -15 -16 -35 -39 -45 -50
-10 -11 -29 -30 -41 -41 -31 -28 -50 -52 -49 -61 1 -5 -8 -9 -20 -11 -11 -2
-20 -7 -20 -12 0 -12 -90 -100 -102 -100 -6 0 -8 -7 -5 -14 4 -9 -2 -17 -13
-21 -11 -3 -34 -26 -52 -51 -17 -24 -35 -44 -40 -44 -4 0 -8 -7 -8 -15 0 -14
-12 -20 -33 -16 -5 1 -6 -3 -2 -9 3 -5 -10 -19 -29 -31 -20 -12 -36 -24 -36
-28 0 -9 -106 -116 -118 -118 -5 -1 -24 16 -41 37 -18 22 -36 40 -41 40 -13 0
-108 99 -101 105 3 3 -5 8 -17 12 -12 3 -19 9 -16 14 3 5 0 9 -5 9 -15 0 -97
81 -93 91 1 5 -1 8 -5 8 -21 -3 -31 3 -36 21 -3 11 -13 20 -22 20 -9 0 -14 4
-11 9 6 10 -27 51 -41 51 -12 0 -53 47 -47 53 2 2 -3 10 -13 18 -15 12 -16 12
-8 -1 4 -8 -17 11 -47 42 -31 31 -58 55 -61 52 -7 -7 -47 46 -47 63 0 7 -12
19 -27 26 -33 14 -53 32 -53 46 0 5 -8 16 -18 23 -11 7 -24 23 -31 36 -7 14
-18 21 -27 18 -8 -3 -14 -1 -14 5 0 5 -16 25 -35 44 -19 19 -29 35 -22 36 7 0
2 4 -10 9 -13 5 -23 14 -23 19 0 5 -9 13 -20 16 -11 3 -20 12 -20 18 0 7 -12
21 -27 32 -58 42 -92 76 -198 193 -49 55 -59 64 -116 118 -16 15 -29 32 -29
37 0 5 -7 6 -16 3 -8 -3 -12 -2 -9 4 3 5 -50 66 -119 135 -74 74 -126 120
-129 113 -4 -9 -6 -8 -6 2 -1 8 -21 28 -46 43 -25 16 -45 35 -45 42 0 8 -8 16
-17 19 -10 4 -40 27 -68 51 -65 59 -72 65 -83 65 -6 0 -27 19 -48 43 -21 23
-42 41 -46 40 -5 -2 -8 2 -8 7 0 6 -7 10 -15 10 -8 0 -15 4 -15 9 0 5 -9 12
-19 16 -11 3 -38 24 -62 47 -23 22 -38 35 -34 27 4 -8 -7 0 -25 16 -18 17 -29
24 -25 16 5 -9 4 -12 -3 -7 -7 4 -12 13 -12 20 0 7 -7 13 -15 14 -8 1 -22 3
-30 4 -8 1 -12 4 -10 8 2 4 -7 13 -20 20 -13 7 -22 18 -18 23 3 6 2 7 -4 4 -5
-4 -21 4 -34 16 -22 21 -38 31 -101 64 -16 8 -28 18 -28 23 0 5 -16 12 -35 16
-19 3 -32 10 -29 15 3 5 -8 9 -24 9 -16 0 -37 9 -47 20 -10 11 -26 20 -36 20
-9 0 -20 6 -22 13 -4 10 -6 10 -6 0 -1 -7 -6 -13 -12 -13 -5 0 -7 5 -4 10 3 6
1 10 -5 10 -6 0 -9 4 -6 9 3 5 -3 11 -14 14 -11 3 -20 2 -20 -3 0 -4 -11 -5
-25 -2 -14 2 -25 8 -25 13 0 11 -85 6 -97 -6z m4017 -2539 c0 -2 -8 -10 -17
-17 -16 -13 -17 -12 -4 4 13 16 21 21 21 13z"/>
<path d="M4680 5046 c0 -2 8 -10 18 -17 15 -13 16 -12 3 4 -13 16 -21 21 -21
13z"/>
<path d="M4459 3723 c-13 -16 -12 -17 4 -4 16 13 21 21 13 21 -2 0 -10 -8 -17
-17z"/>
<path d="M3396 2702 c-3 -5 1 -9 9 -9 8 0 12 4 9 9 -3 4 -7 8 -9 8 -2 0 -6 -4
-9 -8z"/>
</g>
</svg>
